<mxfile host="app.diagrams.net" modified="2023-05-31T19:28:43.749Z" agent="Mozilla/5.0 (Windows NT 10.0; Win64; x64) AppleWebKit/537.36 (KHTML, like Gecko) Chrome/113.0.0.0 Safari/537.36" etag="3LoGcOgCCildE6y__0K2" version="21.3.5" type="github">
  <diagram name="PÃ¡gina-1" id="6NakOK2dS3Nkyxjgwc5y">
    <mxGraphModel dx="1050" dy="623" grid="1" gridSize="10" guides="1" tooltips="1" connect="1" arrows="1" fold="1" page="1" pageScale="1" pageWidth="827" pageHeight="1169" math="0" shadow="0">
      <root>
        <mxCell id="0" />
        <mxCell id="1" parent="0" />
        <mxCell id="b1myV2F2nxtm74Qk2DPG-3" style="edgeStyle=orthogonalEdgeStyle;rounded=0;orthogonalLoop=1;jettySize=auto;html=1;exitX=1;exitY=0.5;exitDx=0;exitDy=0;entryX=0;entryY=0.5;entryDx=0;entryDy=0;" edge="1" parent="1" source="UYSjNAML9XqUJ5GPF2S5-22" target="b1myV2F2nxtm74Qk2DPG-1">
          <mxGeometry relative="1" as="geometry" />
        </mxCell>
        <mxCell id="UYSjNAML9XqUJ5GPF2S5-22" value="" style="ellipse;whiteSpace=wrap;html=1;aspect=fixed;" parent="1" vertex="1">
          <mxGeometry x="70" y="120" width="50" height="50" as="geometry" />
        </mxCell>
        <mxCell id="UYSjNAML9XqUJ5GPF2S5-23" value="Componente faltante calculado&amp;nbsp;" style="rounded=0;whiteSpace=wrap;html=1;" parent="1" vertex="1">
          <mxGeometry x="730" y="119" width="120" height="50" as="geometry" />
        </mxCell>
        <mxCell id="UYSjNAML9XqUJ5GPF2S5-27" value="" style="endArrow=classic;html=1;rounded=0;" parent="1" edge="1">
          <mxGeometry width="50" height="50" relative="1" as="geometry">
            <mxPoint x="850" y="141.66" as="sourcePoint" />
            <mxPoint x="970" y="141.66" as="targetPoint" />
          </mxGeometry>
        </mxCell>
        <mxCell id="UYSjNAML9XqUJ5GPF2S5-37" style="edgeStyle=orthogonalEdgeStyle;rounded=0;orthogonalLoop=1;jettySize=auto;html=1;exitX=0.5;exitY=1;exitDx=0;exitDy=0;entryX=0.5;entryY=0;entryDx=0;entryDy=0;" parent="1" target="UYSjNAML9XqUJ5GPF2S5-36" edge="1">
          <mxGeometry relative="1" as="geometry">
            <mxPoint x="1270" y="169" as="sourcePoint" />
          </mxGeometry>
        </mxCell>
        <mxCell id="UYSjNAML9XqUJ5GPF2S5-28" value="Componente faltante generado" style="rounded=0;whiteSpace=wrap;html=1;" parent="1" vertex="1">
          <mxGeometry x="970" y="117" width="120" height="50" as="geometry" />
        </mxCell>
        <mxCell id="UYSjNAML9XqUJ5GPF2S5-29" value="Generar" style="text;html=1;align=center;verticalAlign=middle;resizable=0;points=[];autosize=1;strokeColor=none;fillColor=none;" parent="1" vertex="1">
          <mxGeometry x="848" y="119" width="70" height="30" as="geometry" />
        </mxCell>
        <mxCell id="UYSjNAML9XqUJ5GPF2S5-30" value="" style="endArrow=classic;html=1;rounded=0;" parent="1" edge="1">
          <mxGeometry width="50" height="50" relative="1" as="geometry">
            <mxPoint x="1331" y="143.66" as="sourcePoint" />
            <mxPoint x="1451" y="143.66" as="targetPoint" />
          </mxGeometry>
        </mxCell>
        <mxCell id="UYSjNAML9XqUJ5GPF2S5-31" value="Componente faltante consultado" style="rounded=0;whiteSpace=wrap;html=1;" parent="1" vertex="1">
          <mxGeometry x="1451" y="119" width="120" height="50" as="geometry" />
        </mxCell>
        <mxCell id="UYSjNAML9XqUJ5GPF2S5-34" value="Consultar" style="text;html=1;align=center;verticalAlign=middle;resizable=0;points=[];autosize=1;strokeColor=none;fillColor=none;" parent="1" vertex="1">
          <mxGeometry x="1325" y="119" width="70" height="30" as="geometry" />
        </mxCell>
        <mxCell id="UYSjNAML9XqUJ5GPF2S5-44" style="edgeStyle=orthogonalEdgeStyle;rounded=0;orthogonalLoop=1;jettySize=auto;html=1;exitX=0;exitY=0.5;exitDx=0;exitDy=0;" parent="1" source="UYSjNAML9XqUJ5GPF2S5-36" edge="1">
          <mxGeometry relative="1" as="geometry">
            <mxPoint x="1160" y="274.33333333333337" as="targetPoint" />
          </mxGeometry>
        </mxCell>
        <mxCell id="UYSjNAML9XqUJ5GPF2S5-36" value="Componente faltante eliminado" style="rounded=0;whiteSpace=wrap;html=1;" parent="1" vertex="1">
          <mxGeometry x="1210" y="249" width="120" height="50" as="geometry" />
        </mxCell>
        <mxCell id="UYSjNAML9XqUJ5GPF2S5-38" value="Eliminar" style="text;html=1;align=center;verticalAlign=middle;resizable=0;points=[];autosize=1;strokeColor=none;fillColor=none;rotation=90;" parent="1" vertex="1">
          <mxGeometry x="1225" y="180" width="70" height="30" as="geometry" />
        </mxCell>
        <mxCell id="UYSjNAML9XqUJ5GPF2S5-39" value="" style="endArrow=classic;html=1;rounded=0;" parent="1" edge="1">
          <mxGeometry width="50" height="50" relative="1" as="geometry">
            <mxPoint x="1571" y="143.57999999999998" as="sourcePoint" />
            <mxPoint x="1691" y="143.57999999999998" as="targetPoint" />
          </mxGeometry>
        </mxCell>
        <mxCell id="UYSjNAML9XqUJ5GPF2S5-40" value="Componente faltante Mostrado" style="rounded=0;whiteSpace=wrap;html=1;" parent="1" vertex="1">
          <mxGeometry x="1690" y="121" width="120" height="50" as="geometry" />
        </mxCell>
        <mxCell id="UYSjNAML9XqUJ5GPF2S5-42" value="" style="ellipse;whiteSpace=wrap;html=1;aspect=fixed;" parent="1" vertex="1">
          <mxGeometry x="1108" y="249" width="50" height="50" as="geometry" />
        </mxCell>
        <mxCell id="UYSjNAML9XqUJ5GPF2S5-43" value="" style="ellipse;whiteSpace=wrap;html=1;aspect=fixed;" parent="1" vertex="1">
          <mxGeometry x="1118" y="259" width="30" height="30" as="geometry" />
        </mxCell>
        <mxCell id="UYSjNAML9XqUJ5GPF2S5-45" value="" style="endArrow=classic;html=1;rounded=0;" parent="1" edge="1">
          <mxGeometry width="50" height="50" relative="1" as="geometry">
            <mxPoint x="1090" y="140.75" as="sourcePoint" />
            <mxPoint x="1210" y="140.75" as="targetPoint" />
          </mxGeometry>
        </mxCell>
        <mxCell id="UYSjNAML9XqUJ5GPF2S5-46" value="Componente faltante guardado" style="rounded=0;whiteSpace=wrap;html=1;" parent="1" vertex="1">
          <mxGeometry x="1210" y="117" width="120" height="50" as="geometry" />
        </mxCell>
        <mxCell id="UYSjNAML9XqUJ5GPF2S5-47" value="Guardar" style="text;html=1;align=center;verticalAlign=middle;resizable=0;points=[];autosize=1;strokeColor=none;fillColor=none;" parent="1" vertex="1">
          <mxGeometry x="1085" y="117" width="70" height="30" as="geometry" />
        </mxCell>
        <mxCell id="UYSjNAML9XqUJ5GPF2S5-48" value="Mostrar" style="text;html=1;align=center;verticalAlign=middle;resizable=0;points=[];autosize=1;strokeColor=none;fillColor=none;" parent="1" vertex="1">
          <mxGeometry x="1567" y="121" width="60" height="30" as="geometry" />
        </mxCell>
        <mxCell id="UYSjNAML9XqUJ5GPF2S5-49" value="" style="ellipse;whiteSpace=wrap;html=1;aspect=fixed;" parent="1" vertex="1">
          <mxGeometry x="1725" y="247" width="50" height="50" as="geometry" />
        </mxCell>
        <mxCell id="UYSjNAML9XqUJ5GPF2S5-50" value="" style="ellipse;whiteSpace=wrap;html=1;aspect=fixed;" parent="1" vertex="1">
          <mxGeometry x="1735" y="257" width="30" height="30" as="geometry" />
        </mxCell>
        <mxCell id="BNKRj_0G5-IuxJrSNCgY-1" value="Diagrama de estados para componente faltante" style="text;html=1;align=center;verticalAlign=middle;resizable=0;points=[];autosize=1;strokeColor=#666666;fillColor=#f5f5f5;fontColor=#333333;" parent="1" vertex="1">
          <mxGeometry x="76" y="50" width="280" height="30" as="geometry" />
        </mxCell>
        <mxCell id="BNKRj_0G5-IuxJrSNCgY-2" value="Inicio" style="text;html=1;align=center;verticalAlign=middle;resizable=0;points=[];autosize=1;strokeColor=none;fillColor=none;" parent="1" vertex="1">
          <mxGeometry x="70" y="95" width="50" height="30" as="geometry" />
        </mxCell>
        <mxCell id="BNKRj_0G5-IuxJrSNCgY-3" value="Componente&lt;br&gt;faltante" style="text;html=1;align=center;verticalAlign=middle;resizable=0;points=[];autosize=1;strokeColor=none;fillColor=none;" parent="1" vertex="1">
          <mxGeometry x="51" y="168" width="90" height="40" as="geometry" />
        </mxCell>
        <mxCell id="BNKRj_0G5-IuxJrSNCgY-4" value="Componente&lt;br&gt;faltante" style="text;html=1;align=center;verticalAlign=middle;resizable=0;points=[];autosize=1;strokeColor=none;fillColor=none;" parent="1" vertex="1">
          <mxGeometry x="1089" y="295" width="90" height="40" as="geometry" />
        </mxCell>
        <mxCell id="BNKRj_0G5-IuxJrSNCgY-5" value="Fin" style="text;html=1;align=center;verticalAlign=middle;resizable=0;points=[];autosize=1;strokeColor=none;fillColor=none;" parent="1" vertex="1">
          <mxGeometry x="1113" y="224" width="40" height="30" as="geometry" />
        </mxCell>
        <mxCell id="BNKRj_0G5-IuxJrSNCgY-6" value="Fin" style="text;html=1;align=center;verticalAlign=middle;resizable=0;points=[];autosize=1;strokeColor=none;fillColor=none;rotation=0;" parent="1" vertex="1">
          <mxGeometry x="1731" y="295" width="40" height="30" as="geometry" />
        </mxCell>
        <mxCell id="BNKRj_0G5-IuxJrSNCgY-8" value="" style="edgeStyle=orthogonalEdgeStyle;rounded=0;orthogonalLoop=1;jettySize=auto;html=1;entryX=0.5;entryY=0;entryDx=0;entryDy=0;" parent="1" source="UYSjNAML9XqUJ5GPF2S5-40" target="BNKRj_0G5-IuxJrSNCgY-7" edge="1">
          <mxGeometry relative="1" as="geometry">
            <mxPoint x="1750" y="171" as="sourcePoint" />
            <mxPoint x="1750" y="247" as="targetPoint" />
          </mxGeometry>
        </mxCell>
        <mxCell id="BNKRj_0G5-IuxJrSNCgY-7" value="Componente&lt;br&gt;faltante" style="text;html=1;align=center;verticalAlign=middle;resizable=0;points=[];autosize=1;strokeColor=none;fillColor=none;" parent="1" vertex="1">
          <mxGeometry x="1705" y="210" width="90" height="40" as="geometry" />
        </mxCell>
        <mxCell id="b1myV2F2nxtm74Qk2DPG-14" style="edgeStyle=orthogonalEdgeStyle;rounded=0;orthogonalLoop=1;jettySize=auto;html=1;exitX=0.5;exitY=1;exitDx=0;exitDy=0;entryX=0.5;entryY=0;entryDx=0;entryDy=0;" edge="1" parent="1" source="b1myV2F2nxtm74Qk2DPG-1" target="b1myV2F2nxtm74Qk2DPG-4">
          <mxGeometry relative="1" as="geometry" />
        </mxCell>
        <mxCell id="b1myV2F2nxtm74Qk2DPG-20" style="edgeStyle=orthogonalEdgeStyle;rounded=0;orthogonalLoop=1;jettySize=auto;html=1;exitX=1;exitY=0.5;exitDx=0;exitDy=0;entryX=0;entryY=0.5;entryDx=0;entryDy=0;" edge="1" parent="1" source="b1myV2F2nxtm74Qk2DPG-1" target="b1myV2F2nxtm74Qk2DPG-19">
          <mxGeometry relative="1" as="geometry" />
        </mxCell>
        <mxCell id="b1myV2F2nxtm74Qk2DPG-1" value="En revision" style="whiteSpace=wrap;html=1;" vertex="1" parent="1">
          <mxGeometry x="246" y="122" width="110" height="45" as="geometry" />
        </mxCell>
        <mxCell id="b1myV2F2nxtm74Qk2DPG-2" value="Validar" style="text;html=1;align=center;verticalAlign=middle;resizable=0;points=[];autosize=1;strokeColor=none;fillColor=none;" vertex="1" parent="1">
          <mxGeometry x="160" y="117" width="60" height="30" as="geometry" />
        </mxCell>
        <mxCell id="b1myV2F2nxtm74Qk2DPG-16" style="edgeStyle=orthogonalEdgeStyle;rounded=0;orthogonalLoop=1;jettySize=auto;html=1;exitX=1;exitY=0.5;exitDx=0;exitDy=0;entryX=0;entryY=0.5;entryDx=0;entryDy=0;" edge="1" parent="1" source="b1myV2F2nxtm74Qk2DPG-4" target="b1myV2F2nxtm74Qk2DPG-9">
          <mxGeometry relative="1" as="geometry" />
        </mxCell>
        <mxCell id="b1myV2F2nxtm74Qk2DPG-4" value="Componente faltante&amp;nbsp;&lt;br&gt;invalido" style="whiteSpace=wrap;html=1;" vertex="1" parent="1">
          <mxGeometry x="241" y="305.5" width="120" height="60" as="geometry" />
        </mxCell>
        <mxCell id="b1myV2F2nxtm74Qk2DPG-7" value="Rechazado&amp;nbsp;" style="text;html=1;align=center;verticalAlign=middle;resizable=0;points=[];autosize=1;strokeColor=none;fillColor=none;" vertex="1" parent="1">
          <mxGeometry x="313" y="250" width="90" height="30" as="geometry" />
        </mxCell>
        <mxCell id="b1myV2F2nxtm74Qk2DPG-9" value="" style="ellipse;whiteSpace=wrap;html=1;aspect=fixed;" vertex="1" parent="1">
          <mxGeometry x="487" y="310" width="50" height="50" as="geometry" />
        </mxCell>
        <mxCell id="b1myV2F2nxtm74Qk2DPG-10" value="" style="ellipse;whiteSpace=wrap;html=1;aspect=fixed;" vertex="1" parent="1">
          <mxGeometry x="497" y="320" width="30" height="30" as="geometry" />
        </mxCell>
        <mxCell id="b1myV2F2nxtm74Qk2DPG-11" value="Componente&lt;br&gt;faltante" style="text;html=1;align=center;verticalAlign=middle;resizable=0;points=[];autosize=1;strokeColor=none;fillColor=none;" vertex="1" parent="1">
          <mxGeometry x="470" y="346" width="90" height="40" as="geometry" />
        </mxCell>
        <mxCell id="b1myV2F2nxtm74Qk2DPG-12" value="Fin" style="text;html=1;align=center;verticalAlign=middle;resizable=0;points=[];autosize=1;strokeColor=none;fillColor=none;" vertex="1" parent="1">
          <mxGeometry x="492" y="285" width="40" height="30" as="geometry" />
        </mxCell>
        <mxCell id="b1myV2F2nxtm74Qk2DPG-17" value="Aceptado" style="text;html=1;align=center;verticalAlign=middle;resizable=0;points=[];autosize=1;strokeColor=none;fillColor=none;" vertex="1" parent="1">
          <mxGeometry x="379" y="110" width="70" height="30" as="geometry" />
        </mxCell>
        <mxCell id="b1myV2F2nxtm74Qk2DPG-21" style="edgeStyle=orthogonalEdgeStyle;rounded=0;orthogonalLoop=1;jettySize=auto;html=1;entryX=0;entryY=0.5;entryDx=0;entryDy=0;" edge="1" parent="1" source="b1myV2F2nxtm74Qk2DPG-19" target="UYSjNAML9XqUJ5GPF2S5-23">
          <mxGeometry relative="1" as="geometry" />
        </mxCell>
        <mxCell id="b1myV2F2nxtm74Qk2DPG-19" value="ComponenteFaltante&lt;br&gt;Autorizado" style="whiteSpace=wrap;html=1;" vertex="1" parent="1">
          <mxGeometry x="463.5" y="122" width="126.5" height="45" as="geometry" />
        </mxCell>
        <mxCell id="b1myV2F2nxtm74Qk2DPG-22" value="Calcular" style="text;html=1;align=center;verticalAlign=middle;resizable=0;points=[];autosize=1;strokeColor=none;fillColor=none;" vertex="1" parent="1">
          <mxGeometry x="620" y="110" width="70" height="30" as="geometry" />
        </mxCell>
      </root>
    </mxGraphModel>
  </diagram>
</mxfile>
